<svg width="25" height="24" viewBox="0 0 25 24" fill="none" xmlns="http://www.w3.org/2000/svg">
  <g clip-path="url(#cal-clip)">
    <path d="M4.16667 7C4.16667 6.46957 4.38617 5.96086 4.77687 5.58579C5.16757 5.21071 5.69747 5 6.25001 5H18.75C19.3025 5 19.8324 5.21071 20.2231 5.58579C20.6138 5.96086 20.8333 6.46957 20.8333 7V19C20.8333 19.5304 20.6138 20.0391 20.2231 20.4142C19.8324 20.7893 19.3025 21 18.75 21H6.25001C5.69747 21 5.16757 20.7893 4.77687 20.4142C4.38617 20.0391 4.16667 19.5304 4.16667 19V7Z" stroke="currentColor" stroke-width="1.5" stroke-linecap="round" stroke-linejoin="round"/>
    <path d="M16.6667 3V7" stroke="currentColor" stroke-width="1.5" stroke-linecap="round" stroke-linejoin="round"/>
    <path d="M8.33333 3V7" stroke="currentColor" stroke-width="1.5" stroke-linecap="round" stroke-linejoin="round"/>
    <path d="M4.16667 11H20.8333" stroke="currentColor" stroke-width="1.5" stroke-linecap="round" stroke-linejoin="round"/>
  </g>
  <defs>
    <clipPath id="cal-clip"><rect width="25" height="24" fill="white"/></clipPath>
  </defs>
</svg>
