<svg fill="none" viewBox="0 0 25.0063 25.0063" width="30" height="30" xmlns="http://www.w3.org/2000/svg">
  <path d="M22.6204 15.4109L22.8617 13.0428C22.9905 11.7792 23.0755 10.9448 23.0088 10.4191L23.0321 10.4193C24.1224 10.4193 25.0063 9.48631 25.0063 8.33543C25.0063 7.18454 24.1224 6.25157 23.0321 6.25157C21.9418 6.25157 21.0579 7.18454 21.0579 8.33543C21.0579 8.85592 21.2387 9.33184 21.5376 9.69705C21.1085 9.97662 20.5475 10.5665 19.703 11.4544L19.703 11.4545C19.0524 12.1385 18.7271 12.4806 18.3642 12.5335C18.1631 12.5629 17.9583 12.5327 17.7726 12.4464C17.4375 12.2906 17.2141 11.8678 16.7673 11.0222L14.4121 6.5647C14.1365 6.04301 13.9058 5.60637 13.6977 5.255C14.551 4.79547 15.1354 3.859 15.1354 2.77848C15.1354 1.24397 13.9569 0 12.5031 0C11.0494 0 9.8709 1.24397 9.8709 2.77848C9.8709 3.859 10.4552 4.79547 11.3085 5.255C11.1005 5.60639 10.8698 6.04296 10.5942 6.5647L8.23899 11.0222C7.79217 11.8678 7.56875 12.2906 7.23367 12.4464C7.048 12.5327 6.84313 12.5629 6.64206 12.5335C6.27917 12.4806 5.95388 12.1385 5.3033 11.4545C4.45884 10.5666 3.89777 9.97662 3.46867 9.69705C3.76758 9.33184 3.94836 8.85592 3.94836 8.33543C3.94836 7.18454 3.06449 6.25157 1.97418 6.25157C0.88387 6.25157 0 7.18454 0 8.33543C0 9.48631 0.88387 10.4193 1.97418 10.4193L1.99749 10.4191C1.93077 10.9448 2.01579 11.7792 2.14455 13.0427L2.38586 15.4109C2.51982 16.7255 2.6312 17.9762 2.76763 19.102H22.2386C22.3751 17.9762 22.4865 16.7255 22.6204 15.4109Z" fill="#791A79"/>
  <path d="M11.0713 25.0063H13.935C17.6674 25.0063 19.5336 25.0063 20.7788 23.8298C21.3223 23.3163 21.6664 22.3906 21.9148 21.1859H3.09151C3.33985 22.3906 3.68399 23.3163 4.22748 23.8298C5.47265 25.0063 7.33886 25.0063 11.0713 25.0063Z" fill="#791A79"/>
</svg>
