<svg fill="none" viewBox="0 0 25.0057 25.0057" width="30" height="30" xmlns="http://www.w3.org/2000/svg">
  <path d="M11.5651 0C6.29089 0.00514251 3.56199 0.099498 1.83075 1.83075C0.099498 3.56199 0.00514251 6.29089 0 11.5651H6.14344C5.70461 11.017 5.37673 10.3704 5.19794 9.65527C4.52496 6.96333 6.96333 4.52496 9.65527 5.19794C10.3704 5.37673 11.017 5.70461 11.5651 6.14344V0Z" fill="#791A79"/>
  <path d="M1.77396e-10 13.4406C0.00514251 18.7148 0.099498 21.4437 1.83075 23.1749C3.56199 24.9062 6.29089 25.0005 11.5651 25.0057V15.1581C10.5903 17.1051 8.5769 18.4418 6.25127 18.4418C5.73338 18.4418 5.31354 18.022 5.31354 17.5041C5.31354 16.9862 5.73338 16.5664 6.25127 16.5664C8.17274 16.5664 9.78273 15.2327 10.2061 13.4406H1.77396e-10Z" fill="#791A79"/>
  <path d="M13.4406 25.0057C18.7148 25.0005 21.4437 24.9062 23.1749 23.1749C24.9062 21.4437 25.0005 18.7148 25.0057 13.4406H14.7996C15.223 15.2327 16.8329 16.5664 18.7544 16.5664C19.2723 16.5664 19.6921 16.9862 19.6921 17.5041C19.6921 18.022 19.2723 18.4418 18.7544 18.4418C16.4288 18.4418 14.4154 17.1051 13.4406 15.1581V25.0057Z" fill="#791A79"/>
  <path d="M25.0057 11.5651C25.0005 6.29089 24.9062 3.56199 23.1749 1.83075C21.4437 0.099498 18.7148 0.00514251 13.4406 1.75122e-10V6.14344C13.9887 5.70461 14.6353 5.37673 15.3504 5.19794C18.0424 4.52496 20.4807 6.96333 19.8077 9.65527C19.629 10.3704 19.3011 11.017 18.8622 11.5651H25.0057Z" fill="#791A79"/>
  <path d="M9.2004 7.01741C10.5902 7.36485 11.5651 8.61355 11.5651 10.0461V11.5651H10.0461C8.61355 11.5651 7.36485 10.5902 7.01741 9.2004C6.68782 7.88202 7.88202 6.68782 9.2004 7.01741Z" fill="#791A79"/>
  <path d="M13.4406 10.0461V11.5651H14.9596C16.3921 11.5651 17.6408 10.5902 17.9883 9.2004C18.3179 7.88202 17.1237 6.68782 15.8053 7.01741C14.4155 7.36485 13.4406 8.61355 13.4406 10.0461Z" fill="#791A79"/>
</svg>
