<svg width="105" height="26" viewBox="0 0 140 35" fill="none" xmlns="http://www.w3.org/2000/svg">
  <g clip-path="url(#clip0_5013_529)">
    <path d="M27.4642 8.25964L12.513 15.7643L12.5999 23.1819L3.55957 18.7487V11.389L18.337 3.82642L27.2904 8.20169" fill="#C530C5"/>
    <path d="M5.15332 26.9776L20.0756 19.4441L20.0177 12.0264L29.029 16.4596V23.8193L14.2516 31.3819L5.2982 27.0356" fill="#C530C5"/>
  </g>
  <path d="M40.9602 19.8436H44.7726C44.8479 20.4837 45.1397 21.0674 45.648 21.5945C46.1752 22.1028 46.8624 22.5076 47.7096 22.8089C48.5568 23.0913 49.5075 23.2325 50.5618 23.2325C51.522 23.2325 52.3127 23.1289 52.934 22.9218C53.5553 22.7147 54.0166 22.4229 54.3178 22.0464C54.619 21.6698 54.7696 21.218 54.7696 20.6908C54.7696 20.1825 54.5814 19.7966 54.2048 19.533C53.8283 19.2506 53.2353 19.0247 52.4257 18.8552C51.6161 18.667 50.5524 18.4787 49.2346 18.2904C48.1991 18.1398 47.2201 17.9327 46.2976 17.6691C45.3751 17.3867 44.5561 17.029 43.8407 16.596C43.1441 16.163 42.5887 15.6358 42.1745 15.0146C41.7791 14.3744 41.5815 13.6214 41.5815 12.7553C41.5815 11.6822 41.8827 10.7409 42.4851 9.93131C43.1064 9.12176 44.0195 8.49106 45.2244 8.03922C46.4294 7.58737 47.9073 7.36145 49.6582 7.36145C52.2939 7.36145 54.3178 7.92626 55.7298 9.05586C57.1606 10.1666 57.8572 11.701 57.8196 13.659H54.1484C54.073 12.5482 53.6024 11.7481 52.7363 11.2586C51.8891 10.7691 50.816 10.5244 49.517 10.5244C48.312 10.5244 47.3142 10.7032 46.5235 11.0609C45.7516 11.4186 45.3656 12.0305 45.3656 12.8965C45.3656 13.2354 45.4598 13.5366 45.648 13.8002C45.8363 14.045 46.1564 14.2615 46.6082 14.4497C47.0601 14.638 47.6719 14.8169 48.4438 14.9863C49.2157 15.1558 50.1759 15.3252 51.3243 15.4946C52.3975 15.6453 53.367 15.8523 54.2331 16.1159C55.1179 16.3607 55.871 16.6901 56.4923 17.1043C57.1324 17.4997 57.6219 18.008 57.9608 18.6293C58.2997 19.2506 58.4691 20.0131 58.4691 20.9168C58.4691 22.0275 58.1773 22.9971 57.5937 23.8255C57.0289 24.6351 56.144 25.2658 54.9391 25.7176C53.753 26.1694 52.2092 26.3954 50.3077 26.3954C48.9522 26.3954 47.7566 26.2542 46.7212 25.9718C45.6857 25.6705 44.7914 25.2752 44.0384 24.7857C43.2853 24.2962 42.6734 23.7596 42.2027 23.176C41.7321 22.5923 41.3932 22.0087 41.1861 21.4251C40.9978 20.8415 40.9225 20.3143 40.9602 19.8436ZM64.8104 22.0181V18.8835H76.8972V22.0181H64.8104ZM60.2637 26L68.8487 7.72857H72.9153L81.5851 26H77.4902L69.9783 9.53595H71.7857L64.3303 26H60.2637ZM80.7387 7.72857H99.9986V10.8632H80.7387V7.72857ZM88.5048 10.4679H92.2607V26H88.5048V10.4679ZM106.457 15.2687H120.944V18.4034H106.457V15.2687ZM120.322 7.72857H124.078V26H120.322V7.72857ZM103.152 7.72857H106.908V26H103.152V7.72857ZM129.374 7.72857H133.13V26H129.374V7.72857Z" fill="#340634"/>
  <defs>
    <clipPath id="clip0_5013_529">
      <rect width="25.4693" height="27.5556" fill="white" transform="translate(3.55566 3.8269)"/>
    </clipPath>
  </defs>
</svg>
