<svg fill="none" viewBox="0 0 25.0063 20.005" width="30" height="24" xmlns="http://www.w3.org/2000/svg">
  <path clip-rule="evenodd" fill-rule="evenodd" d="M9.99628 0H15.01C19.737 0 22.1005 0 23.5689 1.46483C24.58 2.47341 24.895 3.90522 24.9931 6.2384C25.0125 6.70111 25.0222 6.93246 24.9358 7.08681C24.8494 7.24116 24.5045 7.43379 23.8146 7.81904C23.0485 8.24689 22.5306 9.06437 22.5306 10.0025C22.5306 10.9407 23.0485 11.7581 23.8146 12.186C24.5045 12.5712 24.8494 12.7639 24.9358 12.9182C25.0222 13.0726 25.0125 13.3039 24.9931 13.7666C24.895 16.0998 24.58 17.5316 23.5689 18.5402C22.1005 20.005 19.737 20.005 15.01 20.005H9.99628C5.2693 20.005 2.90582 20.005 1.43733 18.5402C0.426246 17.5316 0.111317 16.0998 0.013225 13.7666C-0.00622813 13.3039 -0.0159547 13.0726 0.0704478 12.9182C0.15685 12.7639 0.501792 12.5712 1.19165 12.186C1.95781 11.7581 2.47571 10.9407 2.47571 10.0025C2.47571 9.06437 1.95781 8.24689 1.19165 7.81904C0.501784 7.43379 0.15685 7.24116 0.0704478 7.08681C-0.0159547 6.93246 -0.00622812 6.70111 0.013225 6.2384C0.111317 3.90522 0.426246 2.47341 1.43733 1.46483C2.90582 0 5.2693 0 9.99628 0ZM16.939 5.58849C17.3062 5.9547 17.3062 6.54844 16.939 6.91465L9.41847 14.4165C9.05135 14.7827 8.45613 14.7827 8.08901 14.4165C7.72189 14.0503 7.72189 13.4566 8.08901 13.0904L15.6096 5.58849C15.9767 5.22228 16.5719 5.22228 16.939 5.58849ZM15.6476 14.3786C16.3399 14.3786 16.901 13.8188 16.901 13.1283C16.901 12.4378 16.3399 11.878 15.6476 11.878C14.9554 11.878 14.3942 12.4378 14.3942 13.1283C14.3942 13.8188 14.9554 14.3786 15.6476 14.3786ZM9.38046 8.12704C10.0727 8.12704 10.6339 7.56726 10.6339 6.87673C10.6339 6.1862 10.0727 5.62641 9.38046 5.62641C8.68821 5.62641 8.12703 6.1862 8.12703 6.87673C8.12703 7.56726 8.68821 8.12704 9.38046 8.12704Z" fill="#791A79"/>
</svg>
