<svg width="20" height="20" viewBox="0 0 20 20" fill="none" xmlns="http://www.w3.org/2000/svg">
  <path d="M15.834 13.3359V15.8359C15.834 16.057 15.7462 16.2689 15.5899 16.4252C15.4336 16.5815 15.2217 16.6693 15.0007 16.6693H5.00065C4.55862 16.6693 4.1347 16.4937 3.82214 16.1811C3.50958 15.8686 3.33398 15.4446 3.33398 15.0026V5.0026C3.33398 4.56058 3.50958 4.13665 3.82214 3.82409C4.1347 3.51153 4.55862 3.33594 5.00065 3.33594H13.334C13.555 3.33594 13.767 3.42374 13.9232 3.58002C14.0795 3.7363 14.1673 3.94826 14.1673 4.16927V6.66927M3.33398 5.0026C3.33398 5.44463 3.50958 5.86855 3.82214 6.18112C4.1347 6.49368 4.55862 6.66927 5.00065 6.66927H15.0007C15.2217 6.66927 15.4336 6.75707 15.5899 6.91335C15.7462 7.06963 15.834 7.28159 15.834 7.5026V10.0026" stroke="currentColor" stroke-width="1.5" stroke-linecap="round" stroke-linejoin="round"/>
  <path d="M16.666 10V13.3333H13.3327C12.8907 13.3333 12.4667 13.1577 12.1542 12.8452C11.8416 12.5326 11.666 12.1087 11.666 11.6667C11.666 11.2246 11.8416 10.8007 12.1542 10.4882C12.4667 10.1756 12.8907 10 13.3327 10H16.666Z" stroke="currentColor" stroke-width="1.5" stroke-linecap="round" stroke-linejoin="round"/>
</svg>
